<svg xmlns="http://www.w3.org/2000/svg" viewBox="0 0 600 200" width="600" height="200">
  <defs>
    <linearGradient id="wordFill" x1="0%" y1="0%" x2="100%" y2="0%">
      <stop offset="0%" stop-color="#ffffff"/>
      <stop offset="100%" stop-color="#b0bcd4"/>
    </linearGradient>
    <linearGradient id="leftSlab" x1="0%" y1="0%" x2="100%" y2="100%">
      <stop offset="0%" stop-color="#ff5050"/>
      <stop offset="100%" stop-color="#e84545"/>
    </linearGradient>
    <linearGradient id="rightSlab" x1="0%" y1="0%" x2="100%" y2="100%">
      <stop offset="0%" stop-color="#c73333"/>
      <stop offset="100%" stop-color="#6a1515"/>
    </linearGradient>
  </defs>

  <polygon points="44,48  70,48  92,142  66,142" fill="url(#leftSlab)"/>

  <polygon points="136,48  110,48  88,142  114,142" fill="url(#rightSlab)"/>

  <polygon points="66,142  92,142  90,148  68,148" fill="#07080a"/>

  <line x1="44" y1="48" x2="136" y2="48" stroke="#e84545" stroke-width="1.5" opacity="0.35"/>

  <line x1="44" y1="148" x2="136" y2="148" stroke="#e84545" stroke-width="1" opacity="0.25"/>

  <line x1="52" y1="56" x2="70" y2="132" stroke="rgba(255,120,120,0.2)" stroke-width="1.5"/>

  <path d="M36 60 L36 48 L48 48" fill="none" stroke="#6a7a9a" stroke-width="1.2" stroke-linecap="square"/>
  <path d="M144 60 L144 48 L132 48" fill="none" stroke="#6a7a9a" stroke-width="1.2" stroke-linecap="square"/>
  <path d="M36 136 L36 148 L48 148" fill="none" stroke="#6a7a9a" stroke-width="1.2" stroke-linecap="square"/>
  <path d="M144 136 L144 148 L132 148" fill="none" stroke="#6a7a9a" stroke-width="1.2" stroke-linecap="square"/>

  <text
    x="170"
    y="116"
    font-family="'Trebuchet MS', 'Century Gothic', Futura, sans-serif"
    font-size="52"
    font-weight="700"
    letter-spacing="12"
    fill="url(#wordFill)">VELION</text>

  <line x1="532" y1="76" x2="532" y2="120" stroke="#6a7a9a" stroke-width="1.4"/>

  <text
    x="544"
    y="110"
    font-family="'Trebuchet MS', 'Century Gothic', Futura, sans-serif"
    font-size="22"
    font-weight="700"
    letter-spacing="3"
    fill="#e84545">AI</text>

  <rect x="544" y="114" width="36" height="1.8" rx="1" fill="#e84545" opacity="0.55"/>

  <line x1="170" y1="130" x2="588" y2="130" stroke="#181e2c" stroke-width="1"/>
  <rect x="170" y="129.5" width="80" height="1" fill="#e84545" opacity="0.6"/>

  <text
    x="170"
    y="150"
    font-family="'Courier New', monospace"
    font-size="9.5"
    letter-spacing="6"
    fill="#6a7a9a">SAFETY · INTELLIGENCE · PLATFORM</text>

  <g transform="translate(170, 165)" opacity="0.45">
    <rect x="0"   y="0" width="62" height="17" rx="8.5" fill="none" stroke="#1e2838" stroke-width="1"/>
    <text x="31"  y="12" font-family="'Courier New', monospace" font-size="7.5" fill="#6a7a9a" letter-spacing="1.5" text-anchor="middle">CRASH</text>

    <rect x="70"  y="0" width="50" height="17" rx="8.5" fill="none" stroke="#1e2838" stroke-width="1"/>
    <text x="95"  y="12" font-family="'Courier New', monospace" font-size="7.5" fill="#6a7a9a" letter-spacing="1.5" text-anchor="middle">FALL</text>

    <rect x="128" y="0" width="68" height="17" rx="8.5" fill="none" stroke="#1e2838" stroke-width="1"/>
    <text x="162" y="12" font-family="'Courier New', monospace" font-size="7.5" fill="#6a7a9a" letter-spacing="1.5" text-anchor="middle">HELMET</text>

    <rect x="204" y="0" width="50" height="17" rx="8.5" fill="none" stroke="#1e2838" stroke-width="1"/>
    <text x="229" y="12" font-family="'Courier New', monospace" font-size="7.5" fill="#6a7a9a" letter-spacing="1.5" text-anchor="middle">FIRE</text>

    <rect x="262" y="0" width="52" height="17" rx="8.5" fill="none" stroke="#1e2838" stroke-width="1"/>
    <text x="288" y="12" font-family="'Courier New', monospace" font-size="7.5" fill="#404d68" letter-spacing="1.5" text-anchor="middle">+ MORE</text>
  </g>

  <circle cx="552" cy="162" r="3.5" fill="#22c55e" opacity="0.9">
    <animate attributeName="opacity" values="0.9;0.3;0.9" dur="2s" repeatCount="indefinite"/>
  </circle>
  <text x="560" y="166" font-family="'Courier New', monospace" font-size="9" fill="#22c55e" letter-spacing="2">LIVE</text>

</svg>
